<?xml version="1.0" standalone="no"?>
<!DOCTYPE svg PUBLIC "-//W3C//DTD SVG 20010904//EN"
 "http://www.w3.org/TR/2001/REC-SVG-20010904/DTD/svg10.dtd">
<svg version="1.0" xmlns="http://www.w3.org/2000/svg"
 width="253.000000pt" height="253.000000pt" viewBox="0 0 253.000000 253.000000"
 preserveAspectRatio="xMidYMid meet">

<g transform="translate(0.000000,253.000000) scale(0.100000,-0.100000)"
fill="#000000" stroke="none">
<path d="M1077 2384 c-218 -39 -429 -147 -591 -303 -266 -255 -408 -632 -367
-971 11 -84 45 -242 57 -262 2 -4 37 12 77 36 122 72 261 115 442 135 55 7
104 16 108 20 5 5 7 19 5 32 -4 34 -56 48 -212 57 -129 8 -133 9 -193 45 -55
33 -200 174 -190 184 2 2 25 -5 51 -16 80 -35 132 -36 217 -7 42 14 93 26 115
26 38 0 115 -32 162 -66 21 -16 22 -15 22 4 0 36 -49 81 -136 124 -50 24 -99
58 -119 80 -39 43 -84 128 -120 225 -24 68 -27 94 -5 52 12 -21 49 -57 92 -87
10 -8 49 -18 86 -23 89 -12 165 -51 230 -116 29 -29 55 -53 58 -53 8 0 4 72
-6 90 -6 11 -41 44 -79 74 -37 30 -82 75 -99 100 -34 53 -59 148 -65 255 -4
72 -4 74 10 45 37 -72 122 -137 223 -169 72 -24 151 -102 175 -175 20 -62 39
-60 43 3 3 39 -5 62 -48 149 l-52 103 5 85 c3 47 15 112 25 145 20 59 20 60
31 32 6 -16 11 -31 11 -35 0 -19 62 -96 97 -122 27 -20 53 -54 78 -101 37 -72
56 -86 36 -28 -18 53 -13 119 15 179 14 30 34 86 44 124 11 38 21 71 24 73 2
2 11 -17 20 -44 9 -27 34 -70 55 -96 45 -54 60 -92 76 -192 l11 -70 23 47 c35
73 129 168 201 206 35 18 65 30 68 28 2 -3 -8 -17 -22 -33 -14 -15 -34 -48
-43 -72 -14 -36 -15 -50 -5 -87 16 -59 15 -118 -3 -187 -8 -32 -15 -61 -15
-64 0 -3 19 15 41 41 38 43 121 96 151 96 6 0 31 9 54 21 44 21 79 65 93 117
7 23 10 15 21 -48 31 -177 -36 -342 -162 -403 -29 -14 -62 -32 -73 -40 -19
-15 -19 -16 -2 -23 11 -4 44 5 87 25 87 40 235 71 357 74 l94 2 -5 29 c-9 42
-81 180 -139 264 -98 142 -265 286 -427 367 -80 41 -213 83 -309 100 -104 19
-300 18 -404 -1z"/>
<path d="M2260 1523 c-66 -7 -204 -45 -279 -77 -152 -64 -323 -204 -409 -334
-76 -117 -83 -217 -18 -305 28 -39 110 -89 138 -85 21 3 23 9 29 83 9 116 38
175 108 219 55 35 94 39 161 16 l58 -20 89 88 c55 54 120 105 169 134 118 69
129 69 38 0 -187 -142 -295 -291 -328 -453 -25 -124 -96 -292 -168 -398 -187
-271 -490 -361 -882 -260 -112 28 -202 69 -311 139 -118 77 -136 97 -58 66
131 -54 320 -71 438 -41 87 23 152 62 231 140 119 117 142 201 82 291 -41 60
-103 94 -240 129 -288 73 -533 52 -775 -66 -57 -27 -103 -54 -103 -60 0 -20
50 -112 98 -179 272 -384 759 -565 1212 -450 444 114 773 462 872 925 17 81
17 352 -1 438 l-13 67 -52 -2 c-28 0 -67 -3 -86 -5z m66 -244 c-80 -41 -118
-70 -207 -156 -55 -54 -80 -72 -93 -67 -26 10 -16 24 74 96 79 64 239 157 270
157 8 1 -12 -13 -44 -30z"/>
<path d="M1164 1486 c-96 -30 -148 -100 -148 -201 -1 -76 30 -134 92 -175 53
-35 90 -44 147 -35 80 11 154 82 176 167 27 100 -48 220 -156 247 -53 13 -59
13 -111 -3z"/>
<path d="M1912 958 c-16 -16 -15 -48 2 -48 20 0 39 27 32 45 -7 18 -18 19 -34
3z"/>
</g>
</svg>
